<svg xmlns="http://www.w3.org/2000/svg" xmlns:xlink="http://www.w3.org/1999/xlink" width="180" zoomAndPan="magnify" viewBox="0 0 135 44.999999" height="60" preserveAspectRatio="xMidYMid meet" version="1.0"><defs><g/></defs><g fill="#2d2f33" fill-opacity="1"><g transform="translate(17.2125, 32.669997)"><g><path d="M 21.277344 -8.265625 L 14.65625 -8.265625 C 14.589844 -9.054688 14.195312 -9.636719 13.46875 -10.007812 C 12.914062 -10.292969 12.15625 -10.4375 11.195312 -10.4375 C 8.652344 -10.4375 7.378906 -9.300781 7.378906 -7.027344 C 7.378906 -5.949219 7.699219 -5.097656 8.339844 -4.472656 C 8.980469 -3.851562 9.914062 -3.539062 11.144531 -3.539062 C 13.117188 -3.539062 14.285156 -4.304688 14.65625 -5.835938 L 21.277344 -5.835938 C 20.992188 -3.277344 19.761719 -1.492188 17.589844 -0.480469 C 16.074219 0.210938 13.917969 0.554688 11.121094 0.554688 C 4.210938 0.554688 0.757812 -1.945312 0.757812 -6.949219 C 0.757812 -11.902344 4.210938 -14.378906 11.121094 -14.378906 C 14.21875 -14.378906 16.570312 -13.933594 18.171875 -13.039062 C 19.90625 -12.078125 20.941406 -10.488281 21.277344 -8.265625 Z M 21.277344 -8.265625 "/></g></g></g><g fill="#2d2f33" fill-opacity="1"><g transform="translate(39.197691, 32.669997)"><g><path d="M 1.515625 -18.675781 L 7.835938 -18.675781 L 7.835938 0 L 1.515625 0 Z M 1.515625 -18.675781 "/></g></g></g><g fill="#2d2f33" fill-opacity="1"><g transform="translate(48.547713, 32.669997)"><g><path d="M 7.933594 -9.628906 L 1.617188 -9.628906 C 1.988281 -11.480469 2.898438 -12.746094 4.347656 -13.417969 C 5.726562 -14.058594 8.121094 -14.378906 11.523438 -14.378906 C 14.777344 -14.378906 17.089844 -13.960938 18.460938 -13.128906 C 19.835938 -12.292969 20.519531 -10.859375 20.519531 -8.820312 L 20.519531 -2.148438 C 20.519531 -1.304688 20.714844 -0.589844 21.101562 0 L 14.632812 0 C 14.515625 -0.40625 14.4375 -0.859375 14.40625 -1.363281 C 13.023438 -0.0859375 10.714844 0.554688 7.480469 0.554688 C 5.222656 0.554688 3.539062 0.21875 2.425781 -0.453125 C 1.179688 -1.214844 0.554688 -2.433594 0.554688 -4.121094 C 0.554688 -6.816406 2.710938 -8.265625 7.027344 -8.464844 L 12.359375 -8.71875 C 13.488281 -8.769531 14.050781 -9.148438 14.050781 -9.855469 C 14.050781 -10.75 13.074219 -11.195312 11.121094 -11.195312 C 9.234375 -11.195312 8.171875 -10.671875 7.933594 -9.628906 Z M 14.203125 -5.6875 L 14.203125 -6.292969 C 13.527344 -6.140625 11.828125 -5.949219 9.097656 -5.710938 C 7.953125 -5.609375 7.378906 -5.15625 7.378906 -4.347656 C 7.378906 -3.300781 8.164062 -2.78125 9.730469 -2.78125 C 12.710938 -2.78125 14.203125 -3.75 14.203125 -5.6875 Z M 14.203125 -5.6875 "/></g></g></g><g fill="#2d2f33" fill-opacity="1"><g transform="translate(70.532903, 32.669997)"><g><path d="M 1.515625 0 L 1.515625 -13.824219 L 7.835938 -13.824219 L 7.835938 0 Z M 1.515625 -15.1875 L 1.515625 -18.675781 L 7.835938 -18.675781 L 7.835938 -15.1875 Z M 1.515625 -15.1875 "/></g></g></g><g fill="#2d2f33" fill-opacity="1"><g transform="translate(79.882926, 32.669997)"><g><path d="M 1.515625 0 L 1.515625 -13.824219 L 7.632812 -13.824219 L 7.632812 -11.171875 L 7.683594 -11.171875 C 9.234375 -13.191406 11.195312 -14.203125 13.570312 -14.203125 C 14.277344 -14.203125 14.96875 -14.152344 15.644531 -14.050781 L 15.644531 -8.390625 C 14.296875 -8.726562 13.242188 -8.894531 12.484375 -8.894531 C 9.382812 -8.894531 7.835938 -7.65625 7.835938 -5.179688 L 7.835938 0 Z M 1.515625 0 "/></g></g></g><g fill="#2d2f33" fill-opacity="1"><g transform="translate(95.803235, 32.669997)"><g><path d="M 7.226562 -8.617188 L 14.757812 -8.617188 C 14.691406 -9.359375 14.320312 -9.949219 13.648438 -10.386719 C 12.972656 -10.824219 12.097656 -11.042969 11.019531 -11.042969 C 8.792969 -11.042969 7.53125 -10.234375 7.226562 -8.617188 Z M 14.328125 -4.144531 L 21.050781 -4.144531 C 20.5625 -2.660156 19.511719 -1.515625 17.890625 -0.707031 C 16.207031 0.136719 13.976562 0.554688 11.195312 0.554688 C 4.238281 0.554688 0.757812 -1.9375 0.757812 -6.925781 C 0.757812 -9.300781 1.621094 -11.136719 3.347656 -12.433594 C 5.074219 -13.730469 7.496094 -14.378906 10.613281 -14.378906 C 17.707031 -14.378906 21.210938 -11.398438 21.128906 -5.433594 L 7.226562 -5.433594 C 7.226562 -4.828125 7.515625 -4.289062 8.085938 -3.816406 C 8.792969 -3.226562 9.78125 -2.929688 11.042969 -2.929688 C 12.59375 -2.929688 13.6875 -3.335938 14.328125 -4.144531 Z M 14.328125 -4.144531 "/></g></g></g></svg>