<?xml version="1.0" encoding="utf-8"?>
<!-- Generator: Adobe Illustrator 26.4.1, SVG Export Plug-In . SVG Version: 6.00 Build 0)  -->
<svg version="1.1" id="Isolation_Mode" xmlns="http://www.w3.org/2000/svg" xmlns:xlink="http://www.w3.org/1999/xlink" x="0px"
	 y="0px" viewBox="0 0 1065.41 211.56" style="enable-background:new 0 0 1065.41 211.56;" xml:space="preserve">
<style type="text/css">
	.st0{fill:#FFFFFF;}
</style>
<path class="st0" d="M225.74,114.54H152.9c-0.74-8.71-5.1-15.1-13.07-19.18c-6.12-3.15-14.46-4.73-25.02-4.73
	c-27.98,0-41.98,12.51-41.98,37.53c0,11.86,3.52,21.22,10.56,28.08s17.33,10.29,30.86,10.29c21.68,0,34.57-8.43,38.64-25.3h72.84
	c-3.15,28.17-16.68,47.82-40.59,58.94c-16.68,7.6-40.4,11.4-71.17,11.4C37.99,211.56,0,184.04,0,128.99
	C0,74.5,37.99,47.26,113.98,47.26c34.1,0,59.95,4.91,77.56,14.73C210.63,72.56,222.03,90.07,225.74,114.54z M247.45,205.44V0h69.5
	v205.44H247.45z M418.18,99.52h-69.5c4.08-20.39,14.08-34.29,30.02-41.7c15.2-7.04,41.52-10.56,78.95-10.56
	c35.77,0,61.16,4.63,76.17,13.9c15.2,9.08,22.8,24.83,22.8,47.26v73.39c0,9.27,2.13,17.14,6.39,23.63h-71.17
	c-1.3-4.45-2.13-9.45-2.5-15.01c-15.2,14.09-40.59,21.13-76.17,21.13c-24.84,0-43.37-3.71-55.6-11.12
	C343.86,192.1,337,178.66,337,160.13c0-29.65,23.72-45.59,71.17-47.82l58.66-2.78c12.42-0.56,18.63-4.73,18.63-12.51
	c0-9.82-10.75-14.73-32.25-14.73C432.45,82.29,420.77,88.03,418.18,99.52z M487.12,142.89v-6.67c-7.41,1.67-26.13,3.8-56.16,6.39
	c-12.6,1.11-18.9,6.12-18.9,15.01c0,11.49,8.62,17.24,25.85,17.24C470.72,174.86,487.12,164.21,487.12,142.89z M581.12,205.44V53.38
	h69.5v152.07H581.12z M581.12,38.36V0h69.5v38.36H581.12z M674.56,205.44V53.38h67.27v29.19h0.56
	c17.05-22.24,38.64-33.36,64.77-33.36c7.79,0,15.39,0.56,22.8,1.67v62.27c-14.83-3.71-26.41-5.56-34.75-5.56
	c-34.1,0-51.15,13.62-51.15,40.87v56.99H674.56z M912.49,110.64h82.85c-0.74-8.16-4.82-14.64-12.23-19.46
	c-7.42-4.82-17.05-7.23-28.92-7.23C929.73,83.96,915.83,92.85,912.49,110.64z M990.61,159.85h73.95
	c-5.37,16.31-16.96,28.91-34.75,37.81c-18.53,9.27-43.09,13.9-73.67,13.9c-76.54,0-114.81-27.43-114.81-82.29
	c0-26.13,9.45-46.33,28.35-60.6c19.09-14.27,45.78-21.41,80.07-21.41c78.02,0,116.57,32.8,115.64,98.41h-152.9
	c0,6.67,3.15,12.6,9.46,17.79c7.78,6.49,18.62,9.73,32.52,9.73C971.52,173.19,983.57,168.75,990.61,159.85z"/>
</svg>
