<?xml version="1.0" encoding="utf-8"?>
<!-- Generator: Adobe Illustrator 26.4.1, SVG Export Plug-In . SVG Version: 6.00 Build 0)  -->
<svg version="1.1" id="Graphic_Elements" xmlns="http://www.w3.org/2000/svg" xmlns:xlink="http://www.w3.org/1999/xlink" x="0px"
	 y="0px" viewBox="0 0 135 135" style="enable-background:new 0 0 135 135;" xml:space="preserve">
<style type="text/css">
	.st0{fill:#5F6064;}
	.st1{fill-rule:evenodd;clip-rule:evenodd;fill:#28292D;}
	.st2{fill-rule:evenodd;clip-rule:evenodd;fill:#5F6064;}
</style>
<g>
	<path class="st0" d="M81.66,67.5c0,7.83-6.34,14.17-14.16,14.17c-7.83,0-14.17-6.34-14.17-14.17c0-7.82,6.34-14.16,14.17-14.16
		C75.32,53.34,81.66,59.68,81.66,67.5z"/>
	<path class="st0" d="M67.5,0C30.22,0,0,30.22,0,67.5C0,104.78,30.22,135,67.5,135c37.28,0,67.5-30.22,67.5-67.5
		C135,30.22,104.78,0,67.5,0z M109.74,85.03c-0.21,4.52-0.92,7.61-1.97,10.31c-1.09,2.8-2.54,5.17-4.91,7.53
		c-2.36,2.36-4.73,3.82-7.52,4.9c-2.71,1.05-5.8,1.77-10.32,1.98c-4.53,0.21-5.98,0.25-17.52,0.25c-11.55,0-12.99-0.04-17.53-0.25
		c-4.52-0.21-7.61-0.93-10.31-1.98c-2.8-1.08-5.17-2.54-7.53-4.9c-2.36-2.36-3.82-4.73-4.9-7.53c-1.05-2.7-1.77-5.79-1.98-10.31
		C25.05,80.49,25,79.05,25,67.5c0-11.54,0.05-12.99,0.25-17.52c0.21-4.52,0.93-7.61,1.98-10.32c1.08-2.79,2.54-5.16,4.9-7.52
		c2.36-2.37,4.73-3.82,7.53-4.9c2.7-1.06,5.79-1.77,10.31-1.98C54.51,25.05,55.95,25,67.5,25c11.54,0,12.99,0.05,17.52,0.26
		c4.52,0.21,7.61,0.92,10.32,1.98c2.79,1.08,5.16,2.53,7.52,4.9c2.37,2.36,3.82,4.73,4.91,7.52c1.05,2.71,1.76,5.8,1.97,10.32
		c0.21,4.53,0.26,5.98,0.26,17.52C110,79.05,109.95,80.49,109.74,85.03z M100.63,42.44c-0.77-1.98-1.69-3.4-3.18-4.89
		c-1.49-1.49-2.9-2.41-4.89-3.18c-1.5-0.58-3.75-1.27-7.89-1.46c-4.48-0.2-5.83-0.25-17.17-0.25c-11.35,0-12.7,0.05-17.18,0.25
		c-4.14,0.19-6.39,0.88-7.89,1.46c-1.98,0.77-3.4,1.69-4.89,3.18c-1.48,1.49-2.4,2.91-3.17,4.89c-0.59,1.5-1.28,3.75-1.47,7.89
		c-0.2,4.48-0.25,5.83-0.25,17.17c0,11.35,0.05,12.7,0.25,17.18c0.19,4.14,0.88,6.39,1.47,7.89c0.77,1.98,1.69,3.4,3.17,4.89
		c1.49,1.48,2.91,2.4,4.89,3.18c1.5,0.58,3.75,1.27,7.89,1.46c4.48,0.2,5.83,0.25,17.18,0.25s12.69-0.05,17.17-0.25
		c4.14-0.19,6.39-0.88,7.89-1.46c1.99-0.78,3.4-1.7,4.89-3.18c1.49-1.49,2.41-2.91,3.18-4.89c0.58-1.5,1.27-3.75,1.46-7.89
		c0.21-4.48,0.25-5.83,0.25-17.18c0-11.34-0.04-12.69-0.25-17.17C101.9,46.19,101.21,43.94,100.63,42.44z M67.5,89.33
		c-12.06,0-21.83-9.77-21.83-21.83c0-12.05,9.77-21.82,21.83-21.82c12.05,0,21.82,9.77,21.82,21.82
		C89.32,79.56,79.55,89.33,67.5,89.33z M90.18,49.92c-2.81,0-5.1-2.29-5.1-5.1c0-2.82,2.29-5.1,5.1-5.1c2.82,0,5.1,2.28,5.1,5.1
		C95.28,47.63,93,49.92,90.18,49.92z"/>
</g>
</svg>
