<?xml version="1.0" encoding="utf-8"?>
<!-- Generator: Adobe Illustrator 26.4.1, SVG Export Plug-In . SVG Version: 6.00 Build 0)  -->
<svg version="1.1" id="Graphic_Elements" xmlns="http://www.w3.org/2000/svg" xmlns:xlink="http://www.w3.org/1999/xlink" x="0px"
	 y="0px" viewBox="0 0 135 135" style="enable-background:new 0 0 135 135;" xml:space="preserve">
<style type="text/css">
	.st0{fill:#5F6064;}
	.st1{fill-rule:evenodd;clip-rule:evenodd;fill:#28292D;}
	.st2{fill-rule:evenodd;clip-rule:evenodd;fill:#5F6064;}
</style>
<g>
	<path class="st0" d="M98.13,55.57L83.15,79.34c-2.39,3.78-7.49,4.72-11.06,2.04l-11.92-8.94c-1.09-0.82-2.6-0.82-3.69,0.01
		L40.39,84.66c-2.15,1.63-4.95-0.94-3.51-3.22l14.98-23.77c2.38-3.78,7.49-4.72,11.06-2.04l11.92,8.94
		c1.09,0.82,2.59,0.81,3.68-0.01l16.1-12.21C96.76,50.72,99.57,53.29,98.13,55.57z"/>
	<path class="st0" d="M67.5,0C30.22,0,0,30.22,0,67.5C0,104.78,30.22,135,67.5,135S135,104.78,135,67.5C135,30.22,104.78,0,67.5,0z
		 M67.5,116.44c-5.16,0-10.11-0.68-14.76-1.96c-0.9-0.25-1.87-0.17-2.72,0.2l-10.13,4.47c-2.64,1.17-5.63-0.71-5.72-3.61l-0.28-9.07
		c-0.03-1.12-0.54-2.16-1.37-2.91C22.6,94.69,16.5,81.84,16.5,66.97c0-28.42,22.27-49.47,51-49.47c28.73,0,51,21.05,51,49.47
		C118.5,95.4,96.23,116.44,67.5,116.44z"/>
	<g>
		<g id="logo_5_">
			<path class="st1" d="M98.13,55.57L83.15,79.34c-2.39,3.78-7.49,4.72-11.06,2.04l-11.92-8.94c-1.09-0.82-2.6-0.82-3.69,0.01
				L40.39,84.66c-2.15,1.63-4.95-0.94-3.51-3.22l14.98-23.77c2.38-3.78,7.49-4.72,11.06-2.04l11.92,8.94
				c1.09,0.82,2.59,0.81,3.68-0.01l16.1-12.21C96.76,50.72,99.57,53.29,98.13,55.57z"/>
			<path class="st2" d="M98.13,55.57L83.15,79.34c-2.39,3.78-7.49,4.72-11.06,2.04l-11.92-8.94c-1.09-0.82-2.6-0.82-3.69,0.01
				L40.39,84.66c-2.15,1.63-4.95-0.94-3.51-3.22l14.98-23.77c2.38-3.78,7.49-4.72,11.06-2.04l11.92,8.94
				c1.09,0.82,2.59,0.81,3.68-0.01l16.1-12.21C96.76,50.72,99.57,53.29,98.13,55.57z"/>
		</g>
	</g>
</g>
</svg>
